<svg width="40" height="40" viewBox="0 0 40 40" fill="none" xmlns="http://www.w3.org/2000/svg">
<path d="M20.5859 3.71875C18.1406 3.98438 15.5547 5.09375 13.8047 6.63281L13.3516 7.03125H10.5547C7.84375 7.03125 7.75 7.03906 7.54688 7.19531C7.25781 7.42188 7.25781 7.89062 7.54688 8.11719C7.75 8.27344 7.85156 8.28125 9.96875 8.28125H12.1797L11.7734 8.85938L11.3672 9.44531H6.3125L1.25 9.45312V8.86719V8.28125H3.34375C5.58594 8.27344 5.625 8.27344 5.77344 7.86719C5.86719 7.625 5.77344 7.29688 5.5625 7.14062C5.46094 7.0625 4.89062 7.03906 3.10156 7.03125C0.539062 7.03125 0.390625 7.05469 0.132812 7.49219C0.0078125 7.70312 0 8.50781 0 18.9844C0 29.4609 0.0078125 30.2656 0.132812 30.4766C0.40625 30.9453 0.367188 30.9375 4.95312 30.9375H9.14844L9.33594 30.7422C9.59375 30.4922 9.59375 30.1328 9.33594 29.8828L9.14844 29.6875H5.15625H1.16406L1.20312 24.9375C1.22656 22.3281 1.24219 18.0625 1.25 15.4453V10.7031H5.9375C8.51562 10.7031 10.625 10.7266 10.625 10.75C10.625 10.7812 10.5078 11.1016 10.3594 11.4766C10.2109 11.8438 10.0234 12.3672 9.95312 12.6328L9.82031 13.125H6.75C3.6875 13.125 3.67969 13.125 3.51562 13.2969C3.36719 13.4609 3.35938 13.5547 3.35938 16.0547V18.6484L3.53906 18.8125C3.71875 18.9844 3.75 18.9844 6.78125 18.9844C9.17188 18.9844 9.85156 19.0078 9.875 19.0781C9.89062 19.1328 10 19.4609 10.1094 19.8125C10.2188 20.1641 10.3125 20.4688 10.3125 20.5C10.3125 20.5234 8.82812 20.5469 7.00781 20.5469C3.78906 20.5469 3.69531 20.5547 3.53125 20.7031C3.27344 20.9453 3.29688 21.4219 3.5625 21.6328C3.76562 21.7969 3.84375 21.7969 7.34375 21.7969H10.9219L11.1328 22.1641C11.25 22.375 11.4688 22.7031 11.6094 22.9141L11.875 23.2812H7.78906C3.78125 23.2812 3.69531 23.2812 3.53125 23.4375C3.27344 23.6797 3.29688 24.1562 3.5625 24.3672C3.76562 24.5312 3.83594 24.5312 8.35156 24.5312H12.9219L13.3594 24.9531C14.1094 25.6953 15.2266 26.4688 16.2891 26.9922C18.1719 27.9141 19.3203 28.1953 21.4453 28.2578C22.7266 28.2969 23.0625 28.2734 23.8906 28.1328C25.0078 27.9453 26.2734 27.5391 27.2188 27.0781L27.8906 26.75L28.4922 27.3672C28.8281 27.7031 29.1953 28.0312 29.3125 28.0938C29.5703 28.2266 30.0781 28.2344 30.3516 28.1094C30.5469 28.0234 30.5938 28.0547 31.3906 28.8516L32.2266 29.6875H21.8125H11.3984L11.2109 29.8828C10.9531 30.1328 10.9531 30.4922 11.2109 30.7422C11.3984 30.9375 11.4219 30.9375 12.7734 30.9375C14.0469 30.9375 14.1484 30.9453 14.1094 31.0703C14.0938 31.1484 13.9766 31.5469 13.8672 31.9609L13.6562 32.7188L12.8203 32.75C12.1328 32.7734 11.9219 32.8125 11.5469 32.9844C10.6406 33.4062 10.0781 34.2578 10.0156 35.3281C9.98438 35.8906 9.99219 35.9375 10.1797 36.125L10.3828 36.3281H18.4375H26.4922L26.6953 36.125C26.8828 35.9375 26.8906 35.8906 26.8594 35.3281C26.7969 34.2578 26.2344 33.4062 25.3125 32.9844C24.9609 32.8203 24.7266 32.7734 24.0547 32.75L23.2188 32.7188L23.0078 31.9609C22.8984 31.5469 22.7812 31.1484 22.7656 31.0703C22.7266 30.9453 23.0156 30.9375 28.0938 30.9375H33.4688L34.9219 32.3828C36.625 34.0703 36.7969 34.1797 37.7734 34.1797C38.2969 34.1797 38.4609 34.1406 38.7969 33.9688C39.5938 33.5469 39.9922 32.875 40 31.9531C40 31.0156 39.8359 30.7578 38.2812 29.1797L36.9531 27.8438L36.9375 17.8125C36.9141 8.00781 36.9141 7.76562 36.7578 7.52344C36.4688 7.03906 36.4141 7.03125 33.2109 7.03125H30.3047L29.8125 6.60938C28.1953 5.24219 26.3047 4.33594 24.1484 3.89844C23.4141 3.75 21.2969 3.64062 20.5859 3.71875ZM23.125 5C27.8672 5.57812 31.6953 9.10156 32.6484 13.75C32.8203 14.5859 32.9531 14.7656 33.375 14.7656C33.7422 14.7656 33.9844 14.5469 33.9844 14.2188C33.9844 13.6484 33.5234 11.9844 33.0938 10.9922L32.9688 10.7031H34.3359H35.7031V18.6484V26.6016L34.7812 25.6797L33.8516 24.75L33.9688 24.4297C34.1797 23.8438 34.0703 23.5781 33.2656 22.7656L32.5703 22.0469L32.8906 21.4062C33.5 20.1875 34.0312 18.2812 34.0781 17.1094C34.0938 16.6641 34.0781 16.6094 33.8828 16.4375C33.6094 16.2031 33.3516 16.2031 33.0859 16.4219C32.9141 16.5781 32.875 16.7031 32.8047 17.3047C32.2734 21.7344 28.9766 25.5234 24.6484 26.6797C23.6328 26.9453 22.9219 27.0391 21.7734 27.0391C18.8125 27.0312 16.1484 25.9219 14.0234 23.7891C12.3516 22.1172 11.2969 20.0938 10.9062 17.8203C10.75 16.8828 10.7422 15.0859 10.8984 14.2109C11.1797 12.5859 11.875 10.9062 12.8203 9.57812C15.1562 6.30469 19.1719 4.52344 23.125 5ZM35.7031 8.86719V9.45312H33.9922H32.2812L31.9375 8.96094C31.75 8.69531 31.5703 8.42969 31.5391 8.375C31.4844 8.30469 31.9141 8.28125 33.5859 8.28125H35.7031V8.86719ZM9.57031 16.0547V17.8125H7.09375H4.60938V16.0547V14.2969H7.09375H9.57031V16.0547ZM32.3281 23.6172L32.7344 24.0234L31.2891 25.4688L29.8438 26.9141L29.4141 26.4844L28.9766 26.0547L29.2344 25.8594C29.9219 25.3281 30.7266 24.5625 31.25 23.9219C31.5703 23.5312 31.8516 23.2031 31.875 23.2031C31.8984 23.2031 32.1016 23.3906 32.3281 23.6172ZM38.5234 31.2812C39.0469 31.9844 38.5781 32.9688 37.7109 32.9688C37.3516 32.9688 36.7969 32.4766 34.1406 29.8125L31.4453 27.1094L32.1875 26.3672L32.9297 25.625L35.6094 28.2969C37.0859 29.7734 38.3984 31.1172 38.5234 31.2812ZM21.6562 31.7969C21.7734 32.25 21.875 32.6406 21.875 32.6719C21.875 32.7109 20.3281 32.7344 18.4375 32.7344C16.5469 32.7344 15 32.7109 15 32.6719C15 32.6172 15.3672 31.2344 15.4297 31.0312C15.4609 30.9531 16.1016 30.9375 18.4453 30.9531L21.4297 30.9766L21.6562 31.7969ZM24.6172 34.0625C24.9219 34.1484 25.5469 34.75 25.5469 34.9609C25.5469 35.0625 24.75 35.0781 18.4375 35.0781C12.1797 35.0781 11.3281 35.0625 11.3281 34.9609C11.3281 34.7891 11.875 34.2109 12.1484 34.0938C12.4453 33.9609 24.1562 33.9375 24.6172 34.0625Z" fill="url(#paint0_linear_7331_5438)"/>
<path d="M20.703 6.07031C18.5623 6.29688 16.4842 7.28906 14.8748 8.84375C13.3592 10.3125 12.3826 12.1328 11.992 14.2188C11.8514 14.9844 11.828 16.7422 11.9451 17.5C12.2342 19.3125 12.9451 20.8906 14.117 22.3438C14.6951 23.0625 15.8436 24.1016 16.1483 24.1797C16.5545 24.2812 17.0311 23.8281 16.9295 23.4219C16.8983 23.3047 16.617 23 16.2264 22.6797C14.2342 21 13.1248 18.625 13.117 16.0156C13.117 13.7031 13.9061 11.7031 15.4998 10.0156C17.2733 8.14062 19.7108 7.15625 22.2576 7.28906C25.4061 7.45312 28.203 9.29688 29.6405 12.1641C31.2577 15.3984 30.6561 19.3359 28.1327 21.9766C25.8827 24.3359 22.6717 25.2422 19.5545 24.4141C18.6639 24.1797 18.4842 24.1719 18.2811 24.375C18.0701 24.5859 18.0701 25.0781 18.2733 25.2656C18.4608 25.4375 19.2186 25.6719 20.078 25.8203C20.9451 25.9766 22.6561 25.9766 23.5545 25.8203C27.0467 25.2188 29.992 22.7344 31.2108 19.375C31.8827 17.5 31.9686 15.3359 31.4452 13.375C30.5623 10.0859 27.9295 7.39844 24.6405 6.41406C23.5389 6.08594 21.8826 5.94531 20.703 6.07031Z" fill="url(#paint1_linear_7331_5438)"/>
<path d="M15.4843 13.4766C14.9999 13.7266 14.6952 14.1328 14.6327 14.6016C14.5233 15.4375 14.8983 15.9531 15.8827 16.3281C16.828 16.6953 17.0233 16.7969 17.0702 16.9609C17.1718 17.2812 16.7265 17.5391 16.2265 17.4609C16.0624 17.4297 15.7733 17.2891 15.578 17.1406C15.1561 16.8203 14.8358 16.7969 14.5702 17.0703C14.1405 17.4922 14.4218 18.0234 15.2968 18.4531C15.7499 18.6797 15.8905 18.7109 16.4452 18.7109C16.9374 18.7109 17.1405 18.6719 17.3827 18.5391C18.2577 18.0703 18.5936 17.1641 18.1952 16.3516C17.9843 15.9141 17.664 15.6719 16.8593 15.3594C15.8046 14.9453 15.7421 14.8906 15.9843 14.6562C16.1718 14.4609 16.703 14.5 17.0702 14.7266C17.6796 15.1016 18.203 14.9062 18.203 14.3125C18.203 13.7656 17.5155 13.3516 16.5233 13.3047C15.9608 13.2734 15.8515 13.2891 15.4843 13.4766Z" fill="url(#paint2_linear_7331_5438)"/>
<path d="M19.8828 13.4766L19.6875 13.6641V15.9688V18.2734L19.875 18.4922L20.0625 18.7109H21.2109H22.3594L22.5469 18.4922C22.7734 18.2266 22.7891 17.9766 22.5703 17.7031C22.4219 17.5078 22.375 17.5 21.6719 17.5H20.9375V17.0781V16.6562L21.6094 16.6328C22.2031 16.6016 22.2969 16.5781 22.4297 16.4141C22.6328 16.1641 22.625 15.7734 22.3984 15.5625C22.2422 15.4141 22.125 15.3906 21.5781 15.3906H20.9375V14.9688V14.5469L21.6797 14.5156C22.5078 14.4922 22.6328 14.4219 22.7109 13.9688C22.7422 13.7344 22.7188 13.6484 22.5547 13.4844C22.3516 13.2812 22.3281 13.2812 21.2109 13.2812C20.1016 13.2812 20.0625 13.2891 19.8828 13.4766Z" fill="url(#paint3_linear_7331_5438)"/>
<path d="M25.8127 13.3906C25.0705 13.625 24.3439 14.3437 24.0939 15.0937C23.8986 15.6797 23.9689 16.7109 24.2424 17.2344C24.8205 18.3672 26.1955 18.9765 27.3908 18.6406C28.7033 18.2578 29.5705 17.0156 29.4221 15.7031C29.3127 14.7422 28.5705 13.7734 27.6877 13.4453C27.1955 13.2578 26.3205 13.2344 25.8127 13.3906ZM27.5549 14.8203C28.1799 15.3203 28.3439 16.039 27.9768 16.6953C27.4924 17.5547 26.4689 17.7344 25.7346 17.0937C25.3674 16.7656 25.2346 16.4922 25.2346 16.0156C25.2346 15.1015 25.8596 14.5078 26.7736 14.5547C27.1799 14.5703 27.3127 14.6172 27.5549 14.8203Z" fill="url(#paint4_linear_7331_5438)"/>
<path d="M3.63281 26.1094C3.41406 26.2344 3.35938 26.3281 3.35938 26.6406C3.35938 27.2578 3.38281 27.2656 6.5625 27.2656H9.30469L9.49219 27.0703C9.75 26.8203 9.75 26.4609 9.49219 26.2109L9.30469 26.0156H6.54688C4.64062 26.0234 3.74219 26.0469 3.63281 26.1094Z" fill="url(#paint5_linear_7331_5438)"/>
<defs>
<linearGradient id="paint0_linear_7331_5438" x1="-0.00157365" y1="26.6693" x2="39.9934" y2="26.6693" gradientUnits="userSpaceOnUse">
<stop stop-color="#D61C5B"/>
<stop offset="0.1926" stop-color="#D72158"/>
<stop offset="0.4099" stop-color="#DB2E4F"/>
<stop offset="0.6386" stop-color="#E14540"/>
<stop offset="0.6909" stop-color="#E34B3C"/>
<stop offset="0.7804" stop-color="#E5513A"/>
<stop offset="0.9051" stop-color="#E96433"/>
<stop offset="1" stop-color="#EE762D"/>
</linearGradient>
<linearGradient id="paint1_linear_7331_5438" x1="11.8693" y1="20.0442" x2="31.781" y2="20.0442" gradientUnits="userSpaceOnUse">
<stop stop-color="#D61C5B"/>
<stop offset="0.1926" stop-color="#D72158"/>
<stop offset="0.4099" stop-color="#DB2E4F"/>
<stop offset="0.6386" stop-color="#E14540"/>
<stop offset="0.6909" stop-color="#E34B3C"/>
<stop offset="0.7804" stop-color="#E5513A"/>
<stop offset="0.9051" stop-color="#E96433"/>
<stop offset="1" stop-color="#EE762D"/>
</linearGradient>
<linearGradient id="paint2_linear_7331_5438" x1="14.3719" y1="17.1071" x2="18.3608" y2="17.1071" gradientUnits="userSpaceOnUse">
<stop stop-color="#D61C5B"/>
<stop offset="0.1926" stop-color="#D72158"/>
<stop offset="0.4099" stop-color="#DB2E4F"/>
<stop offset="0.6386" stop-color="#E14540"/>
<stop offset="0.6909" stop-color="#E34B3C"/>
<stop offset="0.7804" stop-color="#E5513A"/>
<stop offset="0.9051" stop-color="#E96433"/>
<stop offset="1" stop-color="#EE762D"/>
</linearGradient>
<linearGradient id="paint3_linear_7331_5438" x1="19.6874" y1="17.104" x2="22.7254" y2="17.104" gradientUnits="userSpaceOnUse">
<stop stop-color="#D61C5B"/>
<stop offset="0.1926" stop-color="#D72158"/>
<stop offset="0.4099" stop-color="#DB2E4F"/>
<stop offset="0.6386" stop-color="#E14540"/>
<stop offset="0.6909" stop-color="#E34B3C"/>
<stop offset="0.7804" stop-color="#E5513A"/>
<stop offset="0.9051" stop-color="#E96433"/>
<stop offset="1" stop-color="#EE762D"/>
</linearGradient>
<linearGradient id="paint4_linear_7331_5438" x1="23.9827" y1="17.1211" x2="29.4377" y2="17.1211" gradientUnits="userSpaceOnUse">
<stop stop-color="#D61C5B"/>
<stop offset="0.1926" stop-color="#D72158"/>
<stop offset="0.4099" stop-color="#DB2E4F"/>
<stop offset="0.6386" stop-color="#E14540"/>
<stop offset="0.6909" stop-color="#E34B3C"/>
<stop offset="0.7804" stop-color="#E5513A"/>
<stop offset="0.9051" stop-color="#E96433"/>
<stop offset="1" stop-color="#EE762D"/>
</linearGradient>
<linearGradient id="paint5_linear_7331_5438" x1="3.35913" y1="26.8957" x2="9.6845" y2="26.8957" gradientUnits="userSpaceOnUse">
<stop stop-color="#D61C5B"/>
<stop offset="0.1926" stop-color="#D72158"/>
<stop offset="0.4099" stop-color="#DB2E4F"/>
<stop offset="0.6386" stop-color="#E14540"/>
<stop offset="0.6909" stop-color="#E34B3C"/>
<stop offset="0.7804" stop-color="#E5513A"/>
<stop offset="0.9051" stop-color="#E96433"/>
<stop offset="1" stop-color="#EE762D"/>
</linearGradient>
</defs>
</svg>
