<svg width="73" height="92" viewBox="0 0 73 92" fill="none" xmlns="http://www.w3.org/2000/svg">
<path fill-rule="evenodd" clip-rule="evenodd" d="M54.2204 58.076C54.2204 48.4776 46.4362 40.6934 36.8378 40.6934C27.2393 40.6934 19.4551 48.4776 19.4551 58.076C19.4551 67.6745 27.2393 75.4587 36.8378 75.4587C46.4362 75.4587 54.2204 67.6745 54.2204 58.076ZM45.4368 52.7364C46.2842 53.5838 46.2842 54.9636 45.4368 55.8109L38.7336 62.514C36.186 65.0616 32.0575 65.0616 29.5099 62.514L27.1524 60.1565C26.305 59.3091 26.305 57.9293 27.1524 57.082C27.9998 56.2347 29.3796 56.2346 30.2269 57.082L32.5844 59.4395C33.4318 60.2924 34.8116 60.2924 35.6589 59.4395L42.3621 52.7364C43.2095 51.8889 44.5895 51.8889 45.4368 52.7364Z" fill="#848484"/>
<path fill-rule="evenodd" clip-rule="evenodd" d="M32.4922 24.6733C26.5983 25.4338 21.188 27.7153 16.6573 31.1103L12.6972 27.1503L14.2291 25.6129C15.5057 24.3418 15.5057 22.2777 14.2291 21.0065C12.958 19.73 10.8939 19.73 9.6227 21.0065L1.94178 28.6875C0.66524 29.9586 0.66524 32.0227 1.94178 33.2939C3.21289 34.5704 5.27703 34.5704 6.54819 33.2939L8.08551 31.762L11.8336 35.5101C6.44501 41.48 3.15857 49.3945 3.15857 58.0756C3.15857 76.675 18.2384 91.7549 36.8379 91.7549C55.4373 91.7549 70.5171 76.675 70.5171 58.0756C70.5171 49.4766 67.2959 41.6274 61.9888 35.6742L65.7859 31.8771L67.2036 33.2948C68.4747 34.5714 70.5388 34.5714 71.81 33.2948C73.0865 32.0237 73.0865 29.9596 71.81 28.6884L64.1291 21.0075C62.858 19.731 60.7938 19.731 59.5227 21.0075C58.2461 22.2786 58.2461 24.3428 59.5227 25.6139L61.174 27.2707L57.1977 31.247C52.6348 27.7759 47.1537 25.4455 41.1834 24.6741V13.533H32.492L32.4922 24.6733ZM36.8379 36.3468C48.8373 36.3468 58.5662 46.0757 58.5662 58.0752C58.5662 70.0746 48.8373 79.8035 36.8379 79.8035C24.8384 79.8035 15.1095 70.0746 15.1095 58.0752C15.1095 46.0757 24.8384 36.3468 36.8379 36.3468Z" fill="#848484"/>
<path d="M44.443 9.18768H29.2324V0.496338H44.443V9.18768Z" fill="#848484"/>
</svg>
