<svg width="93" height="93" viewBox="0 0 93 93" fill="none" xmlns="http://www.w3.org/2000/svg">
<path d="M34.3703 24.011H58.9759C59.879 24.011 60.606 23.2757 60.606 22.3874V2.13115C60.606 1.23161 59.8678 0.496338 58.9759 0.496338H34.3703C33.4671 0.496338 32.7401 1.23165 32.7401 2.13115V22.3989C32.7364 23.2872 33.4784 24.011 34.3703 24.011ZM41.959 10.7789H45.1931L45.1893 7.54651C45.1893 6.72535 45.8601 6.06468 46.6771 6.06468C47.5016 6.06468 48.1649 6.72534 48.1649 7.54651V10.7677H51.399C52.2234 10.7677 52.8867 11.4358 52.8867 12.2495C52.8867 13.0632 52.2234 13.7314 51.399 13.7314H48.1649V16.9525C48.1649 17.7737 47.4941 18.4344 46.6771 18.4344C45.8602 18.4344 45.1893 17.7737 45.1893 16.9525V13.7314H41.9552C41.1308 13.7314 40.4675 13.0632 40.4675 12.2495C40.4712 11.4358 41.1308 10.7789 41.959 10.7789ZM51.9651 42.5951V60.9814C51.9651 66.4271 48.0527 69.8686 43.3496 71.8725C38.8601 73.7835 35.0226 72.2943 35.0226 77.9304V91.0574C35.0226 91.6994 34.4942 92.2332 33.8422 92.2332H12.9272V75.5153C12.9272 74.6941 12.2564 74.0334 11.4394 74.0334C10.6225 74.0334 9.95165 74.6941 9.95165 75.5153V92.2255H2.04817C1.4036 92.2255 0.878906 91.6992 0.878906 91.0498V76.0298C0.878906 67.1165 8.19775 59.8231 17.1391 59.8231H39.0508C40.3361 59.8231 41.393 58.7818 41.393 57.4903V42.5936C41.393 40.634 42.4872 38.9133 44.0874 38.0175V26.9725H49.2664V38.0175C50.8704 38.917 51.9646 40.6377 51.9646 42.5936L51.9651 42.5951ZM13.9544 44.8421C13.9544 39.751 18.1178 35.6003 23.2332 35.6003C28.3447 35.6003 32.512 39.7584 32.512 44.8421C32.512 49.9333 28.3486 54.0839 23.2332 54.0839C18.1179 54.0802 13.9544 49.9333 13.9544 44.8421ZM73.6552 66.1886C73.9812 66.5134 74.0787 66.9725 73.9063 67.4017C73.7227 67.8309 73.3292 68.0885 72.872 68.0885H68.9484C68.3263 68.0885 67.8242 68.5961 67.8242 69.2082V91.2896C67.8242 91.7972 67.4119 92.2152 66.8948 92.2152H61.6745C61.1649 92.2152 60.7452 91.7934 60.7452 91.2896L60.7414 69.2188C60.7414 68.5992 60.2318 68.099 59.6171 68.099H55.6936C55.2326 68.099 54.8316 67.8302 54.6593 67.4122C54.4756 66.9829 54.5731 66.5238 54.8991 66.1991L63.4846 57.6479C63.9268 57.2075 64.6351 57.2075 65.066 57.6479L73.6552 66.1886ZM92.5239 46.2573C92.3402 46.6865 91.9468 46.944 91.4896 46.944H87.566C86.9514 46.944 86.4417 47.4517 86.4417 48.0638V91.3015C86.4417 91.8091 86.0183 92.2272 85.5124 92.2272H80.2921C79.7862 92.2272 79.3627 91.8054 79.3627 91.3015V48.0638C79.3627 47.4517 78.8531 46.944 78.2384 46.944H74.3149C73.8539 46.944 73.4604 46.6753 73.2806 46.2573C73.097 45.828 73.1944 45.3689 73.5317 45.033L82.1097 36.4893C82.5519 36.0488 83.2601 36.0488 83.7024 36.4893L92.2804 45.033C92.6102 45.369 92.7075 45.8281 92.5239 46.2573Z" fill="#848484"/>
</svg>
