<svg width="92" height="74" viewBox="0 0 92 74" fill="none" xmlns="http://www.w3.org/2000/svg">
<path d="M39.5815 27.4866C39.5815 27.4866 38.2271 28.3594 38.5915 29.4717C39.198 31.3218 41.5615 29.9699 41.5615 29.9699L41.6367 27.3975H39.5828L39.5815 27.4866Z" fill="#313131"/>
<path d="M37.6017 37.412C31.2719 35.5097 31.4554 29.0741 31.6146 27.3974H14.4943V21.1363C14.4943 13.5859 20.6304 7.46627 28.2013 7.46627C35.3822 7.46627 41.2687 12.9743 41.8548 19.9858L42.0574 13.0953H46.992C43.8551 5.79717 36.6232 0.689209 28.2 0.689209C16.8998 0.689209 7.73886 9.88073 7.73886 21.2204V27.4585C3.38008 27.9542 -0.0078125 31.6631 -0.0078125 36.1684V64.8706C-0.0078125 69.7148 3.90629 73.6417 8.73395 73.6417H47.666C52.4937 73.6417 56.4065 69.7148 56.4065 64.8706V56.1123L41.5617 37.9089C41.5617 37.9089 39.5932 38.0108 37.6017 37.412ZM32.3727 48.4077V59.4874C32.3727 61.8 30.5049 63.6742 28.2013 63.6742C25.8977 63.6742 24.0298 61.8 24.0298 59.4874V48.4077C22.9289 47.3221 22.2435 45.8123 22.2435 44.1393C22.2435 40.8368 24.9115 38.1599 28.2038 38.1599C31.4949 38.1599 34.1629 40.8381 34.1629 44.1393C34.1591 45.8123 33.4736 47.3234 32.3727 48.4077Z" fill="#313131"/>
<path d="M67.4973 16.3065L43.8063 14.0845L42.9603 29.7332C45.8474 28.5203 47.9535 25.9032 48.583 25.0521C47.844 23.3716 48.2644 21.3355 49.745 20.1047C51.5326 18.6178 54.1853 18.8663 55.6671 20.6602C57.1502 22.4529 56.9017 25.112 55.1128 26.5989C55.0759 26.6308 55.0351 26.6562 54.9969 26.6855C50.7617 33.4384 45.2116 36.1115 42.6621 37.034L66.3073 65.638L91.1807 44.9603L67.4973 16.3065Z" fill="#313131"/>
<path d="M37.5697 30.8711C35.8624 28.8044 40.5702 24.5106 40.5702 24.5106V19.051C32.5687 23.5461 30.4524 32.3248 35.5132 35.161C45.3686 40.6805 53.9103 26.3122 53.9103 26.3122L53.8262 26.2498C54.0543 26.139 54.2773 26.0077 54.4824 25.8383C55.8495 24.7005 56.0406 22.667 54.9054 21.296C53.7727 19.9251 51.7456 19.734 50.3759 20.8717C49.0699 21.9586 48.8533 23.857 49.8229 25.2203L49.7949 25.2216C43.158 32.9899 39.2796 32.939 37.5697 30.8711Z" fill="#313131"/>
</svg>
